<svg width="199" height="60" viewBox="0 0 199 60" fill="none" xmlns="http://www.w3.org/2000/svg">
<path d="M15.2063 13.4633C15.9273 13.0681 16.7984 13.0607 17.526 13.4438L23.7016 16.6951C24.2843 17.0019 24.2832 17.8366 23.6997 18.1418L17.626 21.3192C16.832 21.7346 15.8863 21.7414 15.0864 21.3375L9.05714 18.2928C8.47016 17.9964 8.45609 17.1633 9.03273 16.8472L15.2063 13.4633Z" fill="#B0A2EE"/>
<path d="M16.7715 25.2801C16.7715 24.7876 17.2956 24.472 17.7309 24.7025L24.4266 28.2478C24.9551 28.5277 25.2885 29.0738 25.2958 29.6718L25.4082 38.8562C25.4157 39.4699 24.7691 39.8724 24.2217 39.5947L18.024 36.4505C17.2557 36.0607 16.7715 35.2722 16.7715 34.4106V25.2801Z" fill="#B0A2EE"/>
<path d="M25.2434 18.7891C25.9644 18.3939 26.8356 18.3866 27.5631 18.7696L33.7387 22.0209C34.3214 22.3277 34.3203 23.1624 33.7368 23.4677L27.6631 26.6451C26.8691 27.0604 25.9235 27.0672 25.1236 26.6633L19.0943 23.6186C18.5073 23.3222 18.4932 22.4891 19.0699 22.173L25.2434 18.7891Z" fill="#B0A2EE"/>
<path d="M25.2434 8.08683C25.9644 7.69162 26.8356 7.6843 27.5631 8.06734L33.7387 11.3187C34.3214 11.6254 34.3203 12.4602 33.7368 12.7654L27.6631 15.9428C26.8691 16.3582 25.9235 16.365 25.1236 15.961L19.0943 12.9163C18.5073 12.6199 18.4932 11.7868 19.0699 11.4708L25.2434 8.08683Z" fill="#B0A2EE"/>
<path d="M35.5471 13.3768C36.2682 12.9816 37.1393 12.9743 37.8669 13.3573L44.0425 16.6086C44.6251 16.9154 44.624 17.7501 44.0406 18.0554L37.9668 21.2327C37.1728 21.6481 36.2272 21.6549 35.4273 21.251L29.398 18.2063C28.811 17.9099 28.797 17.0768 29.3736 16.7607L35.5471 13.3768Z" fill="#B0A2EE"/>
<path d="M26.887 30.6411C26.8576 29.644 27.3983 28.7171 28.2807 28.2518L34.5109 24.9667C35.0504 24.6822 35.7001 25.0679 35.7088 25.6778L35.8244 33.8678C35.8406 35.0093 35.1947 36.057 34.1676 36.5553L28.297 39.4037C27.7638 39.6624 27.1412 39.2851 27.1238 38.6927L26.887 30.6411Z" fill="#B0A2EE"/>
<path d="M37.2706 25.1702C37.2412 24.1731 37.7819 23.2462 38.6643 22.7809L44.8945 19.4959C45.434 19.2114 46.0838 19.5971 46.0924 20.207L46.208 28.3969C46.2242 29.5384 45.5783 30.5861 44.5512 31.0844L38.6806 33.9328C38.1474 34.1915 37.5248 33.8142 37.5074 33.2218L37.2706 25.1702Z" fill="#B0A2EE"/>
<path d="M27.0495 43.3694C27.0202 42.3722 27.5609 41.4454 28.4433 40.9801L34.6735 37.695C35.213 37.4105 35.8627 37.7962 35.8713 38.4061L35.987 46.5961C36.0031 47.7376 35.3572 48.7852 34.3302 49.2836L28.4596 52.132C27.9264 52.3907 27.3038 52.0134 27.2864 51.421L27.0495 43.3694Z" fill="#B0A2EE"/>
<path d="M37.2706 37.8426C37.2412 36.8455 37.7819 35.9187 38.6643 35.4534L44.8945 32.1683C45.434 31.8838 46.0838 32.2695 46.0924 32.8794L46.208 41.0694C46.2242 42.2108 45.5783 43.2585 44.5512 43.7569L38.6806 46.6053C38.1474 46.8639 37.5248 46.4867 37.5074 45.8943L37.2706 37.8426Z" fill="#B0A2EE"/>
<path d="M14.0119 36.3426V25.2232C14.0119 24.3259 13.5216 23.5004 12.7336 23.0711L7.47991 20.2088C7.42547 20.1791 7.35913 20.2185 7.35913 20.2805V40.1161C7.35913 40.9502 7.81317 41.7182 8.54399 42.1202L24.4047 50.8456C24.4591 50.8756 24.5257 50.8362 24.5257 50.7741V44.8135C24.5257 43.7393 23.9401 42.7505 22.998 42.2343L14.8606 37.7754C14.3373 37.4887 14.0119 36.9394 14.0119 36.3426Z" stroke="#1F1938" stroke-width="2.12401"/>
<path d="M53.5674 37.3897V22.3759H55.4441V35.8257H67.33V37.3897H53.5674Z" fill="#1F1938"/>
<path d="M79.167 35.8453C79.1474 35.9235 79.0008 36.119 78.7271 36.4318C78.5316 36.6663 78.271 36.8749 77.9452 37.0573C77.6194 37.2333 77.1828 37.3701 76.6354 37.4679C76.0945 37.5721 75.381 37.6243 74.4947 37.6243C73.3153 37.6243 72.3085 37.5623 71.4744 37.4385C70.6403 37.3212 69.9593 37.1388 69.4315 36.8912C68.9037 36.637 68.516 36.3145 68.2683 35.9235C68.0272 35.5325 67.9067 35.0666 67.9067 34.5257C67.9067 33.9588 67.9718 33.4798 68.1022 33.0889C68.239 32.6914 68.4345 32.359 68.6887 32.0918C68.9493 31.8247 69.2621 31.6161 69.627 31.4663C69.9919 31.3164 70.4057 31.2024 70.8684 31.1242C71.3376 31.046 71.8491 30.9971 72.403 30.9775C72.9569 30.958 73.5466 30.9482 74.1722 30.9482C75.0649 30.9482 75.8111 30.9873 76.4106 31.0655C77.0101 31.1372 77.4988 31.2317 77.8768 31.349C78.2612 31.4598 78.5512 31.5803 78.7467 31.7106C78.9422 31.841 79.0823 31.9615 79.167 32.0723C79.167 31.3425 79.1344 30.7201 79.0693 30.2054C79.0106 29.6906 78.9096 29.2605 78.7662 28.9151C78.6294 28.5697 78.4502 28.2961 78.2286 28.094C78.0071 27.8855 77.7334 27.7291 77.4076 27.6249C77.0883 27.5206 76.7136 27.4554 76.2835 27.4294C75.8534 27.3968 75.3614 27.3805 74.8075 27.3805C73.9474 27.3805 73.2338 27.4033 72.6669 27.4489C72.1 27.488 71.6503 27.5695 71.318 27.6933C70.9857 27.8171 70.7511 27.9898 70.6142 28.2113C70.4774 28.4264 70.409 28.7098 70.409 29.0617H68.5323C68.5323 28.4687 68.6365 27.967 68.845 27.5564C69.0601 27.1459 69.412 26.8136 69.9007 26.5594C70.3959 26.2988 71.0443 26.1098 71.8458 25.9925C72.6474 25.8752 73.6346 25.8166 74.8075 25.8166C75.9544 25.8166 76.9254 25.9111 77.7204 26.1C78.5154 26.289 79.1572 26.6213 79.646 27.097C80.1412 27.5727 80.4963 28.2146 80.7114 29.0226C80.9329 29.8241 81.0437 30.8407 81.0437 32.0723V37.3897H79.167V35.8453ZM74.8075 36.1385C75.6351 36.1385 76.3259 36.0994 76.8797 36.0212C77.4402 35.943 77.8898 35.8257 78.2286 35.6693C78.5675 35.5129 78.8086 35.3175 78.952 35.0829C79.0953 34.8483 79.167 34.5746 79.167 34.2618C79.167 33.949 79.0823 33.6851 78.9129 33.4701C78.7499 33.2485 78.473 33.0693 78.082 32.9325C77.6976 32.7956 77.186 32.6979 76.5474 32.6392C75.9088 32.5741 75.1203 32.5415 74.182 32.5415C73.2436 32.5415 72.4844 32.5578 71.9045 32.5903C71.331 32.6229 70.8879 32.6979 70.5751 32.8152C70.2624 32.9325 70.0506 33.1051 69.9398 33.3332C69.8355 33.5613 69.7834 33.8708 69.7834 34.2618C69.7834 34.6528 69.8388 34.9721 69.9496 35.2197C70.0669 35.4608 70.3015 35.6498 70.6533 35.7866C71.0052 35.9235 71.5102 36.018 72.1684 36.0701C72.8331 36.1157 73.7128 36.1385 74.8075 36.1385Z" fill="#1F1938"/>
<path d="M103.574 26.1294L99.1951 37.3897H96.6928L93.2522 28.1625L89.8115 37.3897H87.3092L82.9302 26.1294H85.1197L88.5604 35.9821L92.3138 26.1294H94.1905L97.9049 35.9821L101.385 26.1294H103.574Z" fill="#1F1938"/>
<path d="M117.337 37.3897H115.46V31.0362C115.46 30.3585 115.414 29.7883 115.323 29.3256C115.238 28.8565 115.059 28.4785 114.786 28.1918C114.518 27.9051 114.137 27.6998 113.642 27.576C113.153 27.4457 112.508 27.3805 111.707 27.3805C110.827 27.3805 110.104 27.4554 109.537 27.6053C108.97 27.7487 108.523 27.9539 108.197 28.2211C107.872 28.4818 107.644 28.7978 107.513 29.1692C107.389 29.5407 107.328 29.9545 107.328 30.4106V37.3897H105.451V26.1294H107.328V27.9083C107.334 27.8888 107.363 27.8236 107.416 27.7128C107.468 27.6021 107.559 27.4717 107.689 27.3219C107.826 27.1655 108.009 26.9993 108.237 26.8233C108.471 26.6474 108.771 26.4845 109.136 26.3346C109.507 26.1847 109.954 26.0609 110.475 25.9632C110.996 25.8654 111.615 25.8166 112.332 25.8166C113.036 25.8166 113.645 25.8622 114.16 25.9534C114.681 26.0381 115.124 26.1685 115.489 26.3444C115.861 26.5138 116.161 26.7289 116.389 26.9895C116.623 27.2437 116.809 27.5369 116.946 27.8692C117.057 27.6933 117.229 27.488 117.464 27.2534C117.698 27.0188 118.024 26.794 118.441 26.579C118.865 26.3639 119.393 26.1847 120.025 26.0414C120.657 25.8915 121.429 25.8166 122.341 25.8166C123.091 25.8166 123.733 25.8687 124.267 25.973C124.808 26.0707 125.264 26.2206 125.635 26.4226C126.007 26.6181 126.303 26.8624 126.525 27.1557C126.753 27.4489 126.926 27.791 127.043 28.182C127.167 28.5665 127.248 28.9998 127.287 29.482C127.326 29.9577 127.346 30.4758 127.346 31.0362V37.3897H125.469V31.0362C125.469 30.3585 125.424 29.7883 125.332 29.3256C125.248 28.8565 125.068 28.4785 124.795 28.1918C124.528 27.9051 124.146 27.6998 123.651 27.576C123.162 27.4457 122.517 27.3805 121.716 27.3805C120.836 27.3805 120.113 27.4554 119.546 27.6053C118.979 27.7487 118.532 27.9539 118.207 28.2211C117.881 28.4818 117.653 28.7978 117.522 29.1692C117.399 29.5407 117.337 29.9545 117.337 30.4106V37.3897Z" fill="#1F1938"/>
<path d="M141.06 35.8453C141.04 35.9235 140.893 36.119 140.62 36.4318C140.424 36.6663 140.164 36.8749 139.838 37.0573C139.512 37.2333 139.075 37.3701 138.528 37.4679C137.987 37.5721 137.274 37.6243 136.387 37.6243C135.208 37.6243 134.201 37.5623 133.367 37.4385C132.533 37.3212 131.852 37.1388 131.324 36.8912C130.796 36.637 130.409 36.3145 130.161 35.9235C129.92 35.5325 129.799 35.0666 129.799 34.5257C129.799 33.9588 129.864 33.4798 129.995 33.0889C130.132 32.6914 130.327 32.359 130.581 32.0918C130.842 31.8247 131.155 31.6161 131.52 31.4663C131.885 31.3164 132.298 31.2024 132.761 31.1242C133.23 31.046 133.742 30.9971 134.296 30.9775C134.85 30.958 135.439 30.9482 136.065 30.9482C136.958 30.9482 137.704 30.9873 138.303 31.0655C138.903 31.1372 139.391 31.2317 139.769 31.349C140.154 31.4598 140.444 31.5803 140.639 31.7106C140.835 31.841 140.975 31.9615 141.06 32.0723C141.06 31.3425 141.027 30.7201 140.962 30.2054C140.903 29.6906 140.802 29.2605 140.659 28.9151C140.522 28.5697 140.343 28.2961 140.121 28.094C139.9 27.8855 139.626 27.7291 139.3 27.6249C138.981 27.5206 138.606 27.4554 138.176 27.4294C137.746 27.3968 137.254 27.3805 136.7 27.3805C135.84 27.3805 135.126 27.4033 134.56 27.4489C133.993 27.488 133.543 27.5695 133.211 27.6933C132.878 27.8171 132.644 27.9898 132.507 28.2113C132.37 28.4264 132.302 28.7098 132.302 29.0617H130.425C130.425 28.4687 130.529 27.967 130.738 27.5564C130.953 27.1459 131.305 26.8136 131.793 26.5594C132.289 26.2988 132.937 26.1098 133.738 25.9925C134.54 25.8752 135.527 25.8166 136.7 25.8166C137.847 25.8166 138.818 25.9111 139.613 26.1C140.408 26.289 141.05 26.6213 141.539 27.097C142.034 27.5727 142.389 28.2146 142.604 29.0226C142.826 29.8241 142.936 30.8407 142.936 32.0723V37.3897H141.06V35.8453ZM136.7 36.1385C137.528 36.1385 138.218 36.0994 138.772 36.0212C139.333 35.943 139.782 35.8257 140.121 35.6693C140.46 35.5129 140.701 35.3175 140.845 35.0829C140.988 34.8483 141.06 34.5746 141.06 34.2618C141.06 33.949 140.975 33.6851 140.805 33.4701C140.643 33.2485 140.366 33.0693 139.975 32.9325C139.59 32.7956 139.079 32.6979 138.44 32.6392C137.801 32.5741 137.013 32.5415 136.075 32.5415C135.136 32.5415 134.377 32.5578 133.797 32.5903C133.224 32.6229 132.781 32.6979 132.468 32.8152C132.155 32.9325 131.943 33.1051 131.832 33.3332C131.728 33.5613 131.676 33.8708 131.676 34.2618C131.676 34.6528 131.731 34.9721 131.842 35.2197C131.959 35.4608 132.194 35.6498 132.546 35.7866C132.898 35.9235 133.403 36.018 134.061 36.0701C134.726 36.1157 135.605 36.1385 136.7 36.1385Z" fill="#1F1938"/>
<path d="M156.396 32.3851C156.396 33.343 156.318 34.1445 156.161 34.7896C156.005 35.4282 155.741 35.9398 155.37 36.3242C155.005 36.7087 154.522 36.9824 153.923 37.1453C153.323 37.3082 152.584 37.3897 151.704 37.3897C150.85 37.3897 150.134 37.3245 149.554 37.1942C148.974 37.0638 148.505 36.8423 148.146 36.5295C147.788 36.2167 147.53 35.7997 147.374 35.2784C147.218 34.757 147.139 34.1054 147.139 33.3234V27.6737H144.823V26.1294H147.139V23.0504H149.016V26.1294H156.083V27.6737H149.016V33.3234C149.016 33.949 149.062 34.4312 149.153 34.7701C149.251 35.1089 149.404 35.3566 149.612 35.5129C149.821 35.6693 150.095 35.7606 150.433 35.7866C150.779 35.8127 151.199 35.8257 151.694 35.8257C152.085 35.8257 152.434 35.8192 152.74 35.8062C153.053 35.7931 153.323 35.7541 153.552 35.6889C153.786 35.6172 153.985 35.5129 154.148 35.3761C154.311 35.2327 154.441 35.034 154.539 34.7799C154.643 34.5257 154.718 34.2064 154.764 33.8219C154.809 33.431 154.832 32.952 154.832 32.3851H156.396Z" fill="#1F1938"/>
<path d="M168.595 29.7948C168.595 29.3256 168.559 28.9379 168.487 28.6316C168.422 28.3189 168.262 28.0712 168.008 27.8888C167.754 27.6998 167.376 27.5695 166.874 27.4978C166.379 27.4196 165.701 27.3805 164.841 27.3805C164.001 27.3805 163.316 27.4554 162.788 27.6053C162.261 27.7487 161.847 27.9539 161.547 28.2211C161.247 28.4883 161.042 28.8076 160.931 29.179C160.827 29.5505 160.775 29.9642 160.775 30.4204V37.3897H158.898V26.1294H160.775V27.9181C160.84 27.7161 160.961 27.4945 161.137 27.2534C161.313 27.0058 161.58 26.7777 161.938 26.5692C162.297 26.3542 162.759 26.175 163.326 26.0316C163.9 25.8882 164.613 25.8166 165.467 25.8166C166.444 25.8166 167.239 25.9045 167.852 26.0805C168.464 26.2499 168.94 26.504 169.279 26.8429C169.624 27.1752 169.856 27.589 169.973 28.0843C170.097 28.5795 170.159 29.1497 170.159 29.7948H168.595Z" fill="#1F1938"/>
<path d="M172.035 26.1294H173.912V37.3897H172.035V26.1294ZM173.912 24.2526H172.035V22.3759H173.912V24.2526Z" fill="#1F1938"/>
<path d="M188.261 37.3897L183.745 32.6783L179.229 37.3897H176.727L182.494 31.6618L177.001 26.1294H179.503L183.794 30.479L187.987 26.1294H190.49L184.996 31.652L190.763 37.3897H188.261Z" fill="#1F1938"/>
</svg>

